<?xml version="1.0" encoding="UTF-8" standalone="no"?>
<svg
   xmlns:dc="http://purl.org/dc/elements/1.1/"
   xmlns:cc="http://creativecommons.org/ns#"
   xmlns:rdf="http://www.w3.org/1999/02/22-rdf-syntax-ns#"
   xmlns:svg="http://www.w3.org/2000/svg"
   xmlns="http://www.w3.org/2000/svg"
   xmlns:sodipodi="http://sodipodi.sourceforge.net/DTD/sodipodi-0.dtd"
   xmlns:inkscape="http://www.inkscape.org/namespaces/inkscape"
   inkscape:export-ydpi="96.000008"
   inkscape:export-xdpi="96.000008"
   inkscape:export-filename="icon.png"
   sodipodi:docname="icon.svg"
   inkscape:version="0.92.4 (5da689c313, 2019-01-14)"
   id="svg8"
   version="1.1"
   viewBox="0 0 67.733335 67.733335"
   height="256"
   width="256">
  <title
     id="title3732">Breaks Vector Icon</title>
  <defs
     id="defs2">
    <rect
       id="rect1054"
       height="58.922523"
       width="179.78587"
       y="129.69817"
       x="51.904007" />
  </defs>
  <sodipodi:namedview
     inkscape:pagecheckerboard="true"
     units="px"
     scale-x="1"
     fit-margin-bottom="8"
     fit-margin-right="8"
     fit-margin-left="8"
     lock-margins="true"
     fit-margin-top="8"
     inkscape:window-maximized="1"
     inkscape:window-y="-8"
     inkscape:window-x="-8"
     inkscape:window-height="706"
     inkscape:window-width="1360"
     showgrid="false"
     inkscape:document-rotation="0"
     inkscape:current-layer="g1163"
     inkscape:document-units="mm"
     inkscape:cy="146.33961"
     inkscape:cx="13.890576"
     inkscape:zoom="1.4"
     inkscape:pageshadow="2"
     inkscape:pageopacity="0"
     borderopacity="1.0"
     bordercolor="#666666"
     pagecolor="#ffffff"
     id="base" />
  <metadata
     id="metadata5">
    <rdf:RDF>
      <cc:Work
         rdf:about="">
        <dc:format>image/svg+xml</dc:format>
        <dc:type
           rdf:resource="http://purl.org/dc/dcmitype/StillImage" />
        <dc:title>Breaks Vector Icon</dc:title>
      </cc:Work>
    </rdf:RDF>
  </metadata>
  <g
     transform="translate(-19.029703,-90.581025)"
     style="display:inline;opacity:1"
     inkscape:label="Logo"
     id="layer2"
     inkscape:groupmode="layer">
    <g
       transform="translate(-0.13406951,2.9301566)"
       id="g1163">
      <rect
         style="fill:#ffffff;stroke:none;stroke-width:1.06066012;stroke-linejoin:bevel"
         id="rect28"
         width="66.052162"
         height="65.926453"
         x="19.977242"
         y="88.55304"
         rx="7.5519891"
         ry="7.5519891" />
      <path
         style="fill:none;stroke:#000000;stroke-width:1.51622367;stroke-linecap:butt;stroke-linejoin:bevel;stroke-miterlimit:4;stroke-dasharray:none;stroke-opacity:1"
         d="m 44.949098,120.35962 h 16.744338 l 8.64282,-14.20563"
         id="path1143"
         inkscape:connector-curvature="0" />
      <g
         style="fill:#000000;fill-opacity:1"
         id="g1192"
         transform="matrix(1.3709417,0,0,1.3009581,-10.910432,-36.801539)">
        <g
           aria-label="B"
           transform="matrix(0.75688478,0,0,0.75688478,8.8446628,22.290012)"
           style="font-style:normal;font-weight:normal;font-size:35.27780151px;line-height:1.25;font-family:sans-serif;letter-spacing:0px;word-spacing:0px;white-space:pre;shape-inside:url(#rect1054);fill:#000000;fill-opacity:1;stroke:none"
           id="text1052">
          <path
             style="font-style:normal;font-variant:normal;font-weight:normal;font-stretch:normal;font-size:35.27780151px;font-family:'Alfa Slab One';-inkscape-font-specification:'Alfa Slab One';fill:#000000;fill-opacity:1;stroke-width:3.82039642"
             d="m 102.34766,136.04686 c -1.47164,0.003 -2.656254,1.123 -2.656254,2.51953 v 16.35351 c 0,1.39653 1.184614,2.52149 2.656254,2.52149 14.35293,0.006 28.70575,-0.0299 43.05859,0.0195 v 59.08008 h -6.91797 v 21.53125 h 63.50391 c 11.62163,0 21.07475,-2.10147 28.36133,-6.30274 7.28657,-4.28883 10.93164,-11.02846 10.93164,-20.21875 0,-8.57763 -2.62932,-14.52944 -7.88672,-17.85547 -5.25741,-3.326 -11.16029,-5.2955 -17.70899,-5.9082 v -1.3125 c 3.22823,-0.6127 6.54824,-1.79438 9.96094,-3.54492 3.50494,-1.83805 6.54827,-4.50675 9.13086,-8.00781 2.58258,-3.5886 3.875,-7.96483 3.875,-13.12891 0,-8.31504 -3.22909,-14.7041 -9.68555,-19.16797 -6.45646,-4.46387 -15.44913,-6.70875 -26.97851,-6.69727 -32.7136,0.049 -69.15712,0.0767 -99.64453,0.11918 z m 81.79687,21.41408 h 7.4707 c 2.67482,0 4.65793,0.69917 5.94922,2.09961 1.38353,1.31288 2.07617,3.41434 2.07617,6.30273 v 4.72656 c 0,2.88839 -0.69264,5.03123 -2.07617,6.43164 -1.29129,1.31291 -3.2744,1.97071 -5.94922,1.97071 h -7.4707 z m 0,36.49804 h 8.43945 c 2.67483,0 4.65793,0.6992 5.94922,2.09961 1.38353,1.31291 2.07617,3.41435 2.07618,6.30274 v 5.77734 c -10e-6,2.88839 -0.69265,5.03123 -2.07618,6.43164 -1.29129,1.31291 -3.27439,1.97071 -5.94922,1.97071 h -8.43945 z"
             transform="matrix(0.25498447,0,0,0.26870107,17.297524,96.939598)"
             id="path28"
             inkscape:connector-curvature="0"
             sodipodi:nodetypes="csscccccscscccccsscccscsscscccsccccscc" />
        </g>
      </g>
      <g
         id="g1204"
         transform="matrix(1.3709417,0,0,1.3009581,-10.910432,-36.801539)">
        <g
           id="g1402">
          <circle
             style="fill:#000000;fill-opacity:1;stroke:none;stroke-width:0.18922099;stroke-linecap:round;stroke-linejoin:round;stroke-miterlimit:4;stroke-dasharray:none"
             id="path1119"
             cy="104.34884"
             cx="36.047134"
             r="5.7678156" />
          <path
             style="fill:none;stroke:#000000;stroke-width:1.89221001;stroke-linecap:round;stroke-linejoin:round;stroke-miterlimit:4;stroke-dasharray:none;stroke-opacity:1"
             d="m 37.54079,111.84826 4.204062,5.64588 7.065153,0.50935"
             id="path1145"
             sodipodi:nodetypes="ccc"
             inkscape:connector-curvature="0" />
          <rect
             style="fill:#000000;fill-opacity:1;stroke:none;stroke-width:1.51376998;stroke-linecap:round;stroke-linejoin:round;stroke-miterlimit:4;stroke-dasharray:none"
             id="rect1147"
             width="8.1328602"
             height="22.723928"
             x="30.961149"
             y="110.27685"
             ry="4.0664301" />
          <path
             style="fill:none;stroke:#000000;stroke-width:2.27064991;stroke-linecap:round;stroke-linejoin:round;stroke-miterlimit:4;stroke-dasharray:none;stroke-opacity:1"
             d="m 34.644894,131.77336 8.090351,0.50267 3.375311,9.40494"
             id="path1149"
             sodipodi:nodetypes="ccc"
             inkscape:connector-curvature="0" />
        </g>
      </g>
      <g
         style="fill:none;fill-opacity:1"
         id="g1198"
         transform="matrix(1.3709417,0,0,1.3009581,-10.910432,-36.801539)">
        <path
           id="path1109"
           d="m 27.154851,109.53233 2.818917,25.03133"
           style="fill:none;fill-opacity:1;stroke:#ff6600;stroke-width:2.27064991;stroke-linecap:round;stroke-linejoin:miter;stroke-miterlimit:4;stroke-dasharray:none;stroke-opacity:1"
           sodipodi:nodetypes="cc"
           inkscape:connector-curvature="0" />
        <path
           sodipodi:nodetypes="cc"
           id="path1111"
           d="M 39.663111,134.75304 28.660843,134.56366"
           style="fill:none;fill-opacity:1;stroke:#ff6600;stroke-width:2.27064991;stroke-linecap:round;stroke-linejoin:miter;stroke-miterlimit:4;stroke-dasharray:none;stroke-opacity:1"
           inkscape:connector-curvature="0" />
        <path
           sodipodi:nodetypes="cc"
           id="path1113"
           d="m 34.639577,135.30566 -0.06268,7.41475"
           style="fill:none;fill-opacity:1;stroke:#ff6600;stroke-width:2.27064991;stroke-linecap:round;stroke-linejoin:miter;stroke-miterlimit:4;stroke-dasharray:none;stroke-opacity:1"
           inkscape:connector-curvature="0" />
        <path
           id="path1115"
           d="m 30.48772,143.23616 h 8.218074"
           style="fill:none;fill-opacity:1;stroke:#ff6600;stroke-width:2.27064991;stroke-linecap:round;stroke-linejoin:miter;stroke-miterlimit:4;stroke-dasharray:none;stroke-opacity:1"
           inkscape:connector-curvature="0" />
      </g>
    </g>
  </g>
</svg>
